<svg id="Layer_1" data-name="Layer 1" xmlns="http://www.w3.org/2000/svg" xmlns:xlink="http://www.w3.org/1999/xlink" viewBox="0 0 1696.15 611.02"><defs><style>.cls-1{fill:url(#radial-gradient);}.cls-2{fill:url(#linear-gradient);}.cls-3{fill:#5ec4e3;}.cls-4{fill:#51a5d7;}.cls-5{fill:#296bb4;}</style><radialGradient id="radial-gradient" cx="484.5" cy="513.14" r="140.44" gradientUnits="userSpaceOnUse"><stop offset="0" stop-color="#78a9db"/><stop offset="0.11" stop-color="#74a3d6"/><stop offset="1" stop-color="#4b5aa8"/></radialGradient><linearGradient id="linear-gradient" x1="275.41" y1="447.6" x2="415.84" y2="447.6" gradientUnits="userSpaceOnUse"><stop offset="0.17" stop-color="#97d9ef"/><stop offset="1" stop-color="#78a9db"/></linearGradient></defs><path class="cls-1" d="M415.84,377.38V517.82H275.41q0,3.52.17,7H415.84v7H276.11c.23,2.36.53,4.7.87,7H415.84v7H278.22q.72,3.54,1.61,7h136v7h-134c.74,2.37,1.56,4.71,2.42,7H415.84v7H287.13c1,2.38,2.15,4.72,3.31,7h125.4v7H294.24c1.38,2.38,2.82,4.73,4.33,7H415.84v7H303.49c1.81,2.41,3.72,4.74,5.68,7H415.84v7H315.59c2.38,2.44,4.86,4.77,7.41,7h92.84v7H331.58c3.32,2.49,6.76,4.82,10.3,7h74v7H354.58a138.24,138.24,0,0,0,17.41,7h43.85v7a140.44,140.44,0,0,0,0-280.88Z" transform="translate(-111.46 -234.72)"/><path id="Under_Ciel" data-name="Under Ciel" class="cls-2" d="M415.84,377.38A140.44,140.44,0,0,0,275.41,517.82H415.84Z" transform="translate(-111.46 -234.72)"/><path class="cls-3" d="M111.46,502.67s162,280.16,304.38,280.16C570.06,782.83,666,400,911,234.72c-241.86,230.83-300.55,585-484.76,585C248.31,819.76,111.46,502.67,111.46,502.67Z" transform="translate(-111.46 -234.72)"/><path class="cls-4" d="M196.09,570.09s133.4,223.66,255.12,223.66c105.07,0,220.54-328.59,390.1-446.79-191.54,211.46-209.44,480.6-367,480.6C322.18,827.56,196.09,570.09,196.09,570.09Z" transform="translate(-111.46 -234.72)"/><path class="cls-5" d="M255.64,607.54s110.79,202.85,216.9,202.85S642.62,535.76,806.46,407.81C639.5,596.62,623.9,836.92,486.58,836.92,354,836.92,255.64,607.54,255.64,607.54Z" transform="translate(-111.46 -234.72)"/><path class="cls-5" d="M790.75,706.75V456.55H817.9v250.2Z" transform="translate(-111.46 -234.72)"/><path class="cls-5" d="M866.18,706.75V456.55h91q27.44,0,41.71,6.75t22.81,23.8a83.17,83.17,0,0,1,8.53,37.72q0,26.63-14.13,44.89t-43.66,23.21q10.77,6.32,16.37,12.46,11.9,13.3,22.53,33.28L1047,706.75h-34.15l-27.15-52q-11.9-22.53-19.59-34.48T952.32,603.5a37.38,37.38,0,0,0-12.38-6.66q-4.62-1.19-15.12-1.19H893.33v111.1ZM893.33,567h58.36q18.62,0,29.11-4.7a32.71,32.71,0,0,0,16-15,47.24,47.24,0,0,0,5.45-22.44q0-17.75-10.56-29.18T958.27,484.2H893.33Z" transform="translate(-111.46 -234.72)"/><path class="cls-5" d="M1073.31,706.75V456.55h148.34v29.53H1100.46v76.63H1214v29.35h-113.5v85.17h126v29.52Z" transform="translate(-111.46 -234.72)"/><path class="cls-5" d="M1254.68,626.37l25.61-2.73q1.82,18.76,8.47,30.8t20.64,19.46a66.12,66.12,0,0,0,31.49,7.42q15.54,0,27.43-5.63t17.7-15.44a41.33,41.33,0,0,0,5.81-21.42,37.49,37.49,0,0,0-5.6-20.57q-5.6-8.79-18.47-14.76-8.25-3.93-36.53-12.2t-39.6-15.62q-14.7-9.39-21.9-23.3a66.59,66.59,0,0,1-7.21-31.14,74,74,0,0,1,8.81-35.42,58.2,58.2,0,0,1,25.76-25,82.38,82.38,0,0,1,37.64-8.53q22.82,0,40.24,9a62.08,62.08,0,0,1,26.8,26.37q9.38,17.4,10.07,39.42l-26,2.39q-2.1-23.71-14.2-35.84t-35.76-12.12q-24.63,0-35.89,11A35.74,35.74,0,0,0,1288.69,519q0,13.49,8,22.19,7.83,8.7,40.93,17.83T1383,575q17.92,10.07,26.45,25.51T1418,636.1a79.23,79.23,0,0,1-9.37,37.63,66.8,66.8,0,0,1-27,27.48q-17.55,9.81-39.53,9.81-27.86,0-46.67-9.9T1266,671.34Q1255.24,651.45,1254.68,626.37Z" transform="translate(-111.46 -234.72)"/><path class="cls-5" d="M1455.65,706.75V456.55H1604v29.53H1482.8v76.63h113.5v29.35H1482.8v85.17h126v29.52Z" transform="translate(-111.46 -234.72)"/><path class="cls-5" d="M1646,706.75V456.55h27.85L1781.59,653V456.55h26v250.2h-27.85L1672,510.14V706.75Z" transform="translate(-111.46 -234.72)"/><path class="cls-5" d="M795.23,769.53V722.62h9.47v46.91Z" transform="translate(-111.46 -234.72)"/><path class="cls-5" d="M844.58,769.53h-9V752.19c0-3.67-.19-6.05-.57-7.12a5.07,5.07,0,0,0-1.87-2.52,5.43,5.43,0,0,0-3.12-.89,7.26,7.26,0,0,0-4.2,1.28,6.46,6.46,0,0,0-2.54,3.39,29.25,29.25,0,0,0-.69,7.81v15.39h-9v-34H822v5a13.93,13.93,0,0,1,16.64-4.69,9.17,9.17,0,0,1,3.73,2.74,10,10,0,0,1,1.76,3.77,28.14,28.14,0,0,1,.5,6Z" transform="translate(-111.46 -234.72)"/><path class="cls-5" d="M850.53,759.83l9-1.37a6.58,6.58,0,0,0,2.34,4,7.86,7.86,0,0,0,4.93,1.36,8.82,8.82,0,0,0,5.24-1.28,2.84,2.84,0,0,0,1.19-2.4,2.34,2.34,0,0,0-.64-1.69,7.21,7.21,0,0,0-3-1.19q-10.87-2.4-13.79-4.38a8.74,8.74,0,0,1-4-7.65,9.42,9.42,0,0,1,3.48-7.42q3.5-3,10.82-3,7,0,10.37,2.27a11.63,11.63,0,0,1,4.67,6.72l-8.48,1.57a5.24,5.24,0,0,0-2.06-3,7.6,7.6,0,0,0-4.34-1.06,9.79,9.79,0,0,0-5.09,1,2.12,2.12,0,0,0-1,1.82,2,2,0,0,0,.89,1.63q1.22.9,8.4,2.53t10,4a8.33,8.33,0,0,1,2.81,6.69,10.27,10.27,0,0,1-3.9,8q-3.9,3.36-11.55,3.36-6.95,0-11-2.82A12.91,12.91,0,0,1,850.53,759.83Z" transform="translate(-111.46 -234.72)"/><path class="cls-5" d="M905.73,735.55v7.17h-6.15v13.69a33.4,33.4,0,0,0,.18,4.85,2,2,0,0,0,.8,1.13,2.47,2.47,0,0,0,1.52.45,11.52,11.52,0,0,0,3.62-.86l.76,7a17.94,17.94,0,0,1-7.1,1.34,11.14,11.14,0,0,1-4.38-.82,6.36,6.36,0,0,1-2.87-2.11,8.35,8.35,0,0,1-1.26-3.5,43.89,43.89,0,0,1-.29-6.34V742.72h-4.13v-7.17h4.13V728.8l9-5.25v12Z" transform="translate(-111.46 -234.72)"/><path class="cls-5" d="M912,730.94v-8.32h9v8.32Zm0,38.59v-34h9v34Z" transform="translate(-111.46 -234.72)"/><path class="cls-5" d="M945.76,735.55v7.17h-6.14v13.69a36,36,0,0,0,.17,4.85,2,2,0,0,0,.8,1.13,2.49,2.49,0,0,0,1.52.45,11.47,11.47,0,0,0,3.62-.86l.77,7a18,18,0,0,1-7.11,1.34,11.14,11.14,0,0,1-4.38-.82,6.36,6.36,0,0,1-2.87-2.11,8.49,8.49,0,0,1-1.26-3.5,43.89,43.89,0,0,1-.29-6.34V742.72h-4.13v-7.17h4.13V728.8l9-5.25v12Z" transform="translate(-111.46 -234.72)"/><path class="cls-5" d="M974.37,769.53v-5.09a13.07,13.07,0,0,1-4.88,4.29,13.62,13.62,0,0,1-6.38,1.57,12.4,12.4,0,0,1-6.15-1.51,8.83,8.83,0,0,1-3.93-4.22,18.67,18.67,0,0,1-1.22-7.52v-21.5h9v15.61q0,7.17.5,8.79a4.75,4.75,0,0,0,1.81,2.56,5.52,5.52,0,0,0,3.32.94,7.08,7.08,0,0,0,4.13-1.26,6.42,6.42,0,0,0,2.5-3.14c.45-1.25.67-4.3.67-9.17V735.55h9v34Z" transform="translate(-111.46 -234.72)"/><path class="cls-5" d="M1007.62,735.55v7.17h-6.15v13.69a33.4,33.4,0,0,0,.18,4.85,1.93,1.93,0,0,0,.8,1.13,2.47,2.47,0,0,0,1.52.45,11.52,11.52,0,0,0,3.62-.86l.76,7a17.94,17.94,0,0,1-7.1,1.34,11.14,11.14,0,0,1-4.38-.82,6.31,6.31,0,0,1-2.87-2.11,8.22,8.22,0,0,1-1.26-3.5,43.89,43.89,0,0,1-.29-6.34V742.72h-4.13v-7.17h4.13V728.8l9-5.25v12Z" transform="translate(-111.46 -234.72)"/><path class="cls-5" d="M1062.52,769.53h-8.35v-5a13.61,13.61,0,0,1-4.91,4.34,12.76,12.76,0,0,1-5.72,1.42,12.94,12.94,0,0,1-10-4.72q-4.17-4.73-4.17-13.17,0-8.64,4.06-13.14a13.26,13.26,0,0,1,10.27-4.49,12.73,12.73,0,0,1,9.86,4.74v-16.9h9Zm-24-17.73c0,3.63.5,6.25,1.5,7.88a6.81,6.81,0,0,0,6.08,3.52,6.65,6.65,0,0,0,5.28-2.64c1.45-1.77,2.18-4.39,2.18-7.89,0-3.91-.71-6.72-2.11-8.43a6.68,6.68,0,0,0-5.41-2.58,6.77,6.77,0,0,0-5.36,2.54Q1038.52,746.75,1038.52,751.8Z" transform="translate(-111.46 -234.72)"/><path class="cls-5" d="M1091.06,758.72l9,1.5a14.65,14.65,0,0,1-5.45,7.5,16,16,0,0,1-9.33,2.58q-8.87,0-13.12-5.79a19.47,19.47,0,0,1-3.36-11.72q0-8.44,4.42-13.23a14.52,14.52,0,0,1,11.16-4.78q7.59,0,12,5t4.19,15.34H1078a9.09,9.09,0,0,0,2.17,6.22,6.8,6.8,0,0,0,5.18,2.23,5.51,5.51,0,0,0,3.56-1.15A7.13,7.13,0,0,0,1091.06,758.72Zm.51-9.09a8.64,8.64,0,0,0-2-5.94,6.5,6.5,0,0,0-9.54.11,8.31,8.31,0,0,0-1.89,5.83Z" transform="translate(-111.46 -234.72)"/><path class="cls-5" d="M1125.42,769.53V722.62h19.94q7.52,0,10.93,1.26a10.72,10.72,0,0,1,5.45,4.5,13.47,13.47,0,0,1,2,7.39,12.51,12.51,0,0,1-3.1,8.72q-3.11,3.43-9.28,4.34a22,22,0,0,1,5.07,3.93,53.67,53.67,0,0,1,5.39,7.62l5.73,9.15h-11.33l-6.85-10.21a66.06,66.06,0,0,0-5-6.89,7.43,7.43,0,0,0-2.85-2,15.72,15.72,0,0,0-4.77-.52h-1.92v19.58Zm9.47-27.07h7c4.55,0,7.38-.19,8.52-.58a5.09,5.09,0,0,0,2.65-2,6.11,6.11,0,0,0,1-3.52,5.67,5.67,0,0,0-1.26-3.83,5.86,5.86,0,0,0-3.57-1.83q-1.15-.16-6.92-.16h-7.39Z" transform="translate(-111.46 -234.72)"/><path class="cls-5" d="M1192.34,758.72l9,1.5a14.66,14.66,0,0,1-5.46,7.5,16,16,0,0,1-9.33,2.58q-8.87,0-13.12-5.79a19.47,19.47,0,0,1-3.36-11.72q0-8.44,4.42-13.23a14.52,14.52,0,0,1,11.17-4.78q7.58,0,12,5t4.19,15.34h-22.52a9.09,9.09,0,0,0,2.17,6.22,6.8,6.8,0,0,0,5.19,2.23,5.48,5.48,0,0,0,3.55-1.15A7.14,7.14,0,0,0,1192.34,758.72Zm.51-9.09a8.7,8.7,0,0,0-2-5.94,6.5,6.5,0,0,0-9.54.11,8.31,8.31,0,0,0-1.88,5.83Z" transform="translate(-111.46 -234.72)"/><path class="cls-5" d="M1238.74,745.6l-8.87,1.6a6.38,6.38,0,0,0-2-4,6.14,6.14,0,0,0-4.11-1.34,6.7,6.7,0,0,0-5.36,2.32c-1.33,1.55-2,4.13-2,7.76q0,6,2,8.54a6.68,6.68,0,0,0,5.46,2.5,6.07,6.07,0,0,0,4.19-1.45c1.09-1,1.85-2.64,2.31-5l8.83,1.5q-1.38,6.07-5.28,9.19t-10.47,3.1q-7.45,0-11.89-4.71t-4.43-13q0-8.42,4.45-13.1t12-4.69q6.21,0,9.87,2.67A14.79,14.79,0,0,1,1238.74,745.6Z" transform="translate(-111.46 -234.72)"/><path class="cls-5" d="M1254.52,722.62v17.25a13.48,13.48,0,0,1,16-3.94,9.21,9.21,0,0,1,3.76,3,10.49,10.49,0,0,1,1.72,4,35.35,35.35,0,0,1,.47,6.75v19.94h-9V751.58c0-3.56-.17-5.83-.52-6.78a4.39,4.39,0,0,0-1.8-2.29,5.8,5.8,0,0,0-3.25-.85,7.39,7.39,0,0,0-4,1.09,6.27,6.27,0,0,0-2.58,3.28,19.71,19.71,0,0,0-.81,6.48v17h-9V722.62Z" transform="translate(-111.46 -234.72)"/><path class="cls-5" d="M1305.27,758.72l9,1.5a14.65,14.65,0,0,1-5.45,7.5,16,16,0,0,1-9.33,2.58q-8.87,0-13.12-5.79a19.47,19.47,0,0,1-3.37-11.72q0-8.44,4.42-13.23a14.55,14.55,0,0,1,11.17-4.78q7.59,0,12,5t4.19,15.34h-22.53a9.09,9.09,0,0,0,2.18,6.22,6.77,6.77,0,0,0,5.18,2.23,5.48,5.48,0,0,0,3.55-1.15A7.14,7.14,0,0,0,1305.27,758.72Zm.51-9.09a8.64,8.64,0,0,0-2-5.94,6.5,6.5,0,0,0-9.54.11,8.31,8.31,0,0,0-1.89,5.83Z" transform="translate(-111.46 -234.72)"/><path class="cls-5" d="M1330.65,769.53h-9v-34H1330v4.83a14.5,14.5,0,0,1,3.85-4.51,7.09,7.09,0,0,1,3.89-1.09,11.42,11.42,0,0,1,5.92,1.7l-2.78,7.84a7.84,7.84,0,0,0-4.23-1.48,5,5,0,0,0-3.2,1,7.17,7.17,0,0,0-2.06,3.76c-.5,1.82-.75,5.61-.75,11.4Z" transform="translate(-111.46 -234.72)"/><path class="cls-5" d="M1377.17,745.6l-8.86,1.6a6.43,6.43,0,0,0-2-4,6.18,6.18,0,0,0-4.11-1.34,6.7,6.7,0,0,0-5.36,2.32c-1.34,1.55-2,4.13-2,7.76,0,4,.67,6.88,2,8.54a6.64,6.64,0,0,0,5.45,2.5,6.08,6.08,0,0,0,4.2-1.45,8.85,8.85,0,0,0,2.3-5l8.83,1.5c-.92,4-2.67,7.12-5.28,9.19s-6.09,3.1-10.46,3.1q-7.45,0-11.89-4.71t-4.43-13q0-8.42,4.45-13.1t12-4.69q6.21,0,9.87,2.67A14.78,14.78,0,0,1,1377.17,745.6Z" transform="translate(-111.46 -234.72)"/><path class="cls-5" d="M1393,722.62v17.25a13.48,13.48,0,0,1,16-3.94,9.08,9.08,0,0,1,3.76,3,10.51,10.51,0,0,1,1.73,4,35.54,35.54,0,0,1,.46,6.75v19.94h-9V751.58c0-3.56-.17-5.83-.51-6.78a4.36,4.36,0,0,0-1.81-2.29,5.76,5.76,0,0,0-3.25-.85,7.44,7.44,0,0,0-4,1.09,6.25,6.25,0,0,0-2.57,3.28,19.67,19.67,0,0,0-.82,6.48v17h-9V722.62Z" transform="translate(-111.46 -234.72)"/><path class="cls-5" d="M1443.71,758.72l9,1.5a14.61,14.61,0,0,1-5.46,7.5,16,16,0,0,1-9.33,2.58q-8.87,0-13.12-5.79a19.47,19.47,0,0,1-3.36-11.72q0-8.44,4.42-13.23a14.54,14.54,0,0,1,11.17-4.78q7.58,0,12,5t4.19,15.34h-22.53a9.09,9.09,0,0,0,2.17,6.22,6.8,6.8,0,0,0,5.19,2.23,5.48,5.48,0,0,0,3.55-1.15A7.14,7.14,0,0,0,1443.71,758.72Zm.51-9.09a8.65,8.65,0,0,0-2-5.94,6.49,6.49,0,0,0-9.53.11,8.31,8.31,0,0,0-1.89,5.83Z" transform="translate(-111.46 -234.72)"/><path class="cls-5" d="M1497.65,758.72l9,1.5a14.61,14.61,0,0,1-5.46,7.5,16,16,0,0,1-9.33,2.58q-8.86,0-13.12-5.79a19.47,19.47,0,0,1-3.36-11.72q0-8.44,4.42-13.23a14.54,14.54,0,0,1,11.17-4.78q7.58,0,12,5t4.19,15.34h-22.53a9.09,9.09,0,0,0,2.17,6.22,6.8,6.8,0,0,0,5.19,2.23,5.48,5.48,0,0,0,3.55-1.15A7.14,7.14,0,0,0,1497.65,758.72Zm.51-9.09a8.65,8.65,0,0,0-2-5.94,6.49,6.49,0,0,0-9.53.11,8.31,8.31,0,0,0-1.89,5.83Z" transform="translate(-111.46 -234.72)"/><path class="cls-5" d="M1545.33,769.53h-9V752.19c0-3.67-.19-6.05-.58-7.12a5,5,0,0,0-1.87-2.52,5.41,5.41,0,0,0-3.12-.89,7.21,7.21,0,0,0-4.19,1.28,6.43,6.43,0,0,0-2.55,3.39,29.37,29.37,0,0,0-.68,7.81v15.39h-9v-34h8.36v5a13.93,13.93,0,0,1,16.64-4.69,9.13,9.13,0,0,1,3.72,2.74,9.83,9.83,0,0,1,1.76,3.77,28.14,28.14,0,0,1,.5,6Z" transform="translate(-111.46 -234.72)"/><path class="cls-5" d="M1572,769.53V722.62h34.78v7.94h-25.31V741H1605v7.9h-23.55v12.77h26.21v7.9Z" transform="translate(-111.46 -234.72)"/><path class="cls-5" d="M1646.57,769.53h-9V752.19c0-3.67-.19-6.05-.58-7.12a5,5,0,0,0-1.87-2.52,5.41,5.41,0,0,0-3.12-.89,7.21,7.21,0,0,0-4.19,1.28,6.43,6.43,0,0,0-2.55,3.39,29.37,29.37,0,0,0-.68,7.81v15.39h-9v-34H1624v5a13.93,13.93,0,0,1,16.64-4.69,9.13,9.13,0,0,1,3.72,2.74,9.83,9.83,0,0,1,1.76,3.77,28.14,28.14,0,0,1,.5,6Z" transform="translate(-111.46 -234.72)"/><path class="cls-5" d="M1675.37,758.72l9,1.5a14.61,14.61,0,0,1-5.46,7.5,16,16,0,0,1-9.33,2.58q-8.86,0-13.12-5.79a19.47,19.47,0,0,1-3.36-11.72q0-8.44,4.42-13.23a14.55,14.55,0,0,1,11.17-4.78q7.57,0,12,5t4.19,15.34h-22.53a9.13,9.13,0,0,0,2.17,6.22,6.8,6.8,0,0,0,5.19,2.23,5.48,5.48,0,0,0,3.55-1.15A7.14,7.14,0,0,0,1675.37,758.72Zm.51-9.09a8.64,8.64,0,0,0-2-5.94,6.5,6.5,0,0,0-9.54.11,8.31,8.31,0,0,0-1.89,5.83Z" transform="translate(-111.46 -234.72)"/><path class="cls-5" d="M1700.75,769.53h-9v-34h8.35v4.83a14.5,14.5,0,0,1,3.85-4.51,7.06,7.06,0,0,1,3.89-1.09,11.42,11.42,0,0,1,5.92,1.7l-2.78,7.84a7.87,7.87,0,0,0-4.23-1.48,5,5,0,0,0-3.2,1,7.17,7.17,0,0,0-2.06,3.76c-.5,1.82-.75,5.61-.75,11.4Z" transform="translate(-111.46 -234.72)"/><path class="cls-5" d="M1716.81,771.77l10.27,1.25a3.45,3.45,0,0,0,1.19,2.46,6.74,6.74,0,0,0,4,1,10.55,10.55,0,0,0,5.28-1.05,4.39,4.39,0,0,0,1.79-2.27,13.58,13.58,0,0,0,.42-4.13v-5q-4,5.51-10.18,5.5a12.53,12.53,0,0,1-10.85-5.79,19.7,19.7,0,0,1-3.14-11.39q0-8.55,4.12-13.06a13.26,13.26,0,0,1,10.22-4.51q6.3,0,10.4,5.54v-4.77h8.42v30.5a30.1,30.1,0,0,1-1,9,11.08,11.08,0,0,1-2.78,4.67,12.3,12.3,0,0,1-4.78,2.65,25.19,25.19,0,0,1-7.57,1q-8.64,0-12.26-3a9.27,9.27,0,0,1-3.61-7.5C1716.78,772.56,1716.79,772.2,1716.81,771.77Zm8-19.93q0,5.4,2.1,7.91a6.46,6.46,0,0,0,5.17,2.52,7.13,7.13,0,0,0,5.56-2.58q2.28-2.58,2.28-7.63,0-5.28-2.18-7.84a6.91,6.91,0,0,0-5.5-2.56,6.64,6.64,0,0,0-5.33,2.51C1725.54,745.85,1724.84,748.4,1724.84,751.84Z" transform="translate(-111.46 -234.72)"/><path class="cls-5" d="M1757.68,730.94v-8.32h9v8.32Zm0,38.59v-34h9v34Z" transform="translate(-111.46 -234.72)"/><path class="cls-5" d="M1795.56,758.72l9,1.5a14.65,14.65,0,0,1-5.45,7.5,16,16,0,0,1-9.33,2.58q-8.87,0-13.12-5.79a19.47,19.47,0,0,1-3.36-11.72q0-8.44,4.42-13.23a14.52,14.52,0,0,1,11.16-4.78q7.59,0,12,5t4.19,15.34h-22.53a9.09,9.09,0,0,0,2.18,6.22,6.77,6.77,0,0,0,5.19,2.23,5.5,5.5,0,0,0,3.55-1.15A7.13,7.13,0,0,0,1795.56,758.72Zm.51-9.09a8.64,8.64,0,0,0-2-5.94,6.5,6.5,0,0,0-9.54.11,8.31,8.31,0,0,0-1.89,5.83Z" transform="translate(-111.46 -234.72)"/><path class="cls-5" d="M793.12,816.68l9.22-.89q.82,4.63,3.37,6.81a10.24,10.24,0,0,0,6.87,2.18c3,0,5.34-.65,6.89-1.94a5.75,5.75,0,0,0,2.32-4.52,4.29,4.29,0,0,0-1-2.84,7.9,7.9,0,0,0-3.41-2c-1.11-.38-3.64-1.07-7.59-2.05-5.07-1.26-8.64-2.8-10.68-4.64a12.19,12.19,0,0,1-4.32-9.44,12,12,0,0,1,2-6.7,12.63,12.63,0,0,1,5.85-4.75,23.46,23.46,0,0,1,9.24-1.64q8.82,0,13.29,3.88a13.66,13.66,0,0,1,4.69,10.33l-9.47.42a8.07,8.07,0,0,0-2.61-5.2c-1.33-1.06-3.33-1.58-6-1.58a10.8,10.8,0,0,0-6.46,1.69,3.42,3.42,0,0,0-1.51,2.91,3.61,3.61,0,0,0,1.41,2.85c1.19,1,4.1,2.05,8.7,3.14A46.3,46.3,0,0,1,824.21,806a13.19,13.19,0,0,1,5.18,4.77,13.94,13.94,0,0,1,1.87,7.47,13.73,13.73,0,0,1-2.24,7.55,13.38,13.38,0,0,1-6.33,5.24,26.62,26.62,0,0,1-10.21,1.71q-8.9,0-13.66-4.11T793.12,816.68Z" transform="translate(-111.46 -234.72)"/><path class="cls-5" d="M837.09,814.48a18.33,18.33,0,0,1,2.21-8.68,15.14,15.14,0,0,1,6.25-6.4,18.58,18.58,0,0,1,9-2.2,17,17,0,0,1,12.64,5,17.29,17.29,0,0,1,4.93,12.66,17.49,17.49,0,0,1-5,12.78,16.81,16.81,0,0,1-12.52,5.08,19.74,19.74,0,0,1-8.92-2.12,14.45,14.45,0,0,1-6.44-6.19A20.53,20.53,0,0,1,837.09,814.48Zm9.21.47q0,5.07,2.4,7.75a7.85,7.85,0,0,0,11.83,0q2.38-2.69,2.38-7.81t-2.38-7.68a7.85,7.85,0,0,0-11.83,0C847.1,809,846.3,811.59,846.3,815Z" transform="translate(-111.46 -234.72)"/><path class="cls-5" d="M879.2,832V785h9V832Z" transform="translate(-111.46 -234.72)"/><path class="cls-5" d="M904.13,808.33,896,806.86a12.72,12.72,0,0,1,4.73-7.3q3.36-2.37,10-2.36,6,0,9,1.42a8.9,8.9,0,0,1,4.14,3.62q1.2,2.19,1.2,8l-.09,10.5a36.31,36.31,0,0,0,.43,6.61A19.33,19.33,0,0,0,927,832h-8.9c-.24-.6-.52-1.48-.87-2.66a9.92,9.92,0,0,0-.32-1,16,16,0,0,1-4.92,3.35,14.08,14.08,0,0,1-5.6,1.13q-5.25,0-8.27-2.85a9.46,9.46,0,0,1-3-7.2,9.65,9.65,0,0,1,1.38-5.14,8.9,8.9,0,0,1,3.85-3.45,29.91,29.91,0,0,1,7.15-2.1,48.23,48.23,0,0,0,8.74-2.21v-.89a4.67,4.67,0,0,0-1.28-3.7q-1.27-1.11-4.83-1.11a6.46,6.46,0,0,0-3.75.95A6.55,6.55,0,0,0,904.13,808.33Zm12,7.3c-1.15.38-3,.84-5.47,1.37a16.75,16.75,0,0,0-4.9,1.57,3.76,3.76,0,0,0-1.76,3.17,4.39,4.39,0,0,0,1.41,3.26,4.9,4.9,0,0,0,3.58,1.38,7.74,7.74,0,0,0,4.64-1.6,5.61,5.61,0,0,0,2.15-3,18,18,0,0,0,.35-4.38Z" transform="translate(-111.46 -234.72)"/><path class="cls-5" d="M933.86,793.36V785h9v8.33Zm0,38.59V798h9v34Z" transform="translate(-111.46 -234.72)"/><path class="cls-5" d="M960.67,832h-9V798H960v4.83a14.63,14.63,0,0,1,3.86-4.51,7.14,7.14,0,0,1,3.89-1.08,11.41,11.41,0,0,1,5.92,1.69l-2.79,7.84a7.88,7.88,0,0,0-4.22-1.47,5,5,0,0,0-3.2,1,7.06,7.06,0,0,0-2.06,3.76q-.76,2.72-.76,11.39Z" transform="translate(-111.46 -234.72)"/><path class="cls-5" d="M997.25,821.13l9,1.5a14.67,14.67,0,0,1-5.46,7.51,16,16,0,0,1-9.32,2.58q-8.86,0-13.12-5.79A19.49,19.49,0,0,1,975,815.21q0-8.44,4.41-13.23a14.55,14.55,0,0,1,11.17-4.78q7.59,0,12,5t4.19,15.35H984.16a9.11,9.11,0,0,0,2.18,6.22,6.8,6.8,0,0,0,5.18,2.23,5.49,5.49,0,0,0,3.55-1.16A7.06,7.06,0,0,0,997.25,821.13Zm.51-9.09a8.62,8.62,0,0,0-2-5.93,6.48,6.48,0,0,0-9.54.11,8.3,8.3,0,0,0-1.89,5.82Z" transform="translate(-111.46 -234.72)"/><path class="cls-5" d="M1053,821.13l9,1.5a14.79,14.79,0,0,1-5.46,7.51,16,16,0,0,1-9.33,2.58q-8.87,0-13.12-5.79a19.49,19.49,0,0,1-3.36-11.72q0-8.44,4.42-13.23a14.52,14.52,0,0,1,11.17-4.78q7.58,0,12,5t4.19,15.35h-22.52a9.1,9.1,0,0,0,2.17,6.22,6.84,6.84,0,0,0,5.19,2.23,5.51,5.51,0,0,0,3.55-1.16A7.06,7.06,0,0,0,1053,821.13Zm.51-9.09a8.67,8.67,0,0,0-2-5.93,6.18,6.18,0,0,0-4.67-2,6.26,6.26,0,0,0-4.87,2.15,8.3,8.3,0,0,0-1.88,5.82Z" transform="translate(-111.46 -234.72)"/><path class="cls-5" d="M1085.33,798v7.17h-6.15v13.7a33.4,33.4,0,0,0,.18,4.85,2,2,0,0,0,.8,1.13,2.53,2.53,0,0,0,1.52.45,11.82,11.82,0,0,0,3.62-.86l.76,7a17.77,17.77,0,0,1-7.1,1.35,11.41,11.41,0,0,1-4.39-.82,6.4,6.4,0,0,1-2.86-2.11,8.32,8.32,0,0,1-1.26-3.51,43.62,43.62,0,0,1-.29-6.33V805.13H1066V798h4.13v-6.75l9-5.25v12Z" transform="translate(-111.46 -234.72)"/><path class="cls-5" d="M1130.53,821.13l9,1.5a14.73,14.73,0,0,1-5.46,7.51,16,16,0,0,1-9.33,2.58q-8.87,0-13.12-5.79a19.49,19.49,0,0,1-3.36-11.72q0-8.44,4.42-13.23a14.54,14.54,0,0,1,11.17-4.78q7.57,0,12,5t4.2,15.35h-22.53a9.1,9.1,0,0,0,2.17,6.22,6.84,6.84,0,0,0,5.19,2.23,5.49,5.49,0,0,0,3.55-1.16A7.06,7.06,0,0,0,1130.53,821.13ZM1131,812a8.67,8.67,0,0,0-2-5.93,6.18,6.18,0,0,0-4.67-2,6.24,6.24,0,0,0-4.86,2.15,8.3,8.3,0,0,0-1.89,5.82Z" transform="translate(-111.46 -234.72)"/><path class="cls-5" d="M1178.21,832h-9V814.6c0-3.67-.2-6-.58-7.12a5,5,0,0,0-1.87-2.51,5.43,5.43,0,0,0-3.12-.9,7.21,7.21,0,0,0-4.19,1.28,6.49,6.49,0,0,0-2.55,3.4,29.25,29.25,0,0,0-.69,7.81V832h-9V798h8.35v5a13.62,13.62,0,0,1,11.2-5.76,13.37,13.37,0,0,1,5.44,1.07A9.09,9.09,0,0,1,1176,801a9.8,9.8,0,0,1,1.76,3.78,28.08,28.08,0,0,1,.5,6.05Z" transform="translate(-111.46 -234.72)"/><path class="cls-5" d="M1206.67,832V785h34.79V793h-25.32v10.4h23.55v7.91h-23.55V824h26.21V832Z" transform="translate(-111.46 -234.72)"/><path class="cls-5" d="M1281.23,832h-9V814.6q0-5.51-.58-7.12a5,5,0,0,0-1.87-2.51,5.39,5.39,0,0,0-3.12-.9,7.23,7.23,0,0,0-4.19,1.28,6.42,6.42,0,0,0-2.54,3.4,29.25,29.25,0,0,0-.69,7.81V832h-9V798h8.36v5a13.6,13.6,0,0,1,11.2-5.76,13.41,13.41,0,0,1,5.44,1.07A9.22,9.22,0,0,1,1279,801a10.1,10.1,0,0,1,1.76,3.78,28.2,28.2,0,0,1,.49,6.05Z" transform="translate(-111.46 -234.72)"/><path class="cls-5" d="M1310,821.13l9,1.5a14.71,14.71,0,0,1-5.45,7.51,16,16,0,0,1-9.33,2.58q-8.87,0-13.12-5.79a19.49,19.49,0,0,1-3.37-11.72q0-8.44,4.42-13.23a14.55,14.55,0,0,1,11.17-4.78q7.59,0,12,5t4.19,15.35h-22.53a9.11,9.11,0,0,0,2.18,6.22,6.8,6.8,0,0,0,5.18,2.23,5.49,5.49,0,0,0,3.55-1.16A7.06,7.06,0,0,0,1310,821.13Zm.51-9.09a8.62,8.62,0,0,0-2-5.93,6.48,6.48,0,0,0-9.54.11,8.3,8.3,0,0,0-1.89,5.82Z" transform="translate(-111.46 -234.72)"/><path class="cls-5" d="M1335.41,832h-9V798h8.35v4.83a14.63,14.63,0,0,1,3.85-4.51,7.16,7.16,0,0,1,3.89-1.08,11.41,11.41,0,0,1,5.92,1.69l-2.78,7.84a7.91,7.91,0,0,0-4.23-1.47,5,5,0,0,0-3.2,1,7.13,7.13,0,0,0-2.06,3.76q-.75,2.72-.75,11.39Z" transform="translate(-111.46 -234.72)"/><path class="cls-5" d="M1351.47,834.19l10.27,1.24a3.51,3.51,0,0,0,1.19,2.47,6.74,6.74,0,0,0,4,1,10.53,10.53,0,0,0,5.28-1.05,4.36,4.36,0,0,0,1.79-2.28,13.51,13.51,0,0,0,.42-4.12v-5q-4,5.5-10.18,5.51a12.53,12.53,0,0,1-10.85-5.79,19.7,19.7,0,0,1-3.13-11.4c0-5.69,1.37-10,4.11-13a13.26,13.26,0,0,1,10.22-4.51q6.32,0,10.4,5.53V798h8.42v30.5a30.41,30.41,0,0,1-1,9,11.13,11.13,0,0,1-2.79,4.67,12.31,12.31,0,0,1-4.78,2.66,25.18,25.18,0,0,1-7.57,1q-8.64,0-12.26-3a9.28,9.28,0,0,1-3.61-7.5C1351.44,835,1351.45,834.61,1351.47,834.19Zm8-19.94q0,5.41,2.1,7.92a6.47,6.47,0,0,0,5.17,2.51,7.12,7.12,0,0,0,5.56-2.57q2.28-2.58,2.28-7.63,0-5.28-2.18-7.85a6.92,6.92,0,0,0-5.5-2.56,6.63,6.63,0,0,0-5.33,2.52C1360.2,808.26,1359.5,810.82,1359.5,814.25Z" transform="translate(-111.46 -234.72)"/><path class="cls-5" d="M1392.34,793.36V785h9v8.33Zm0,38.59V798h9v34Z" transform="translate(-111.46 -234.72)"/><path class="cls-5" d="M1430.22,821.13l9,1.5a14.71,14.71,0,0,1-5.45,7.51,16,16,0,0,1-9.33,2.58q-8.87,0-13.12-5.79a19.49,19.49,0,0,1-3.36-11.72q0-8.44,4.42-13.23a14.52,14.52,0,0,1,11.16-4.78q7.59,0,12,5t4.19,15.35h-22.53a9.11,9.11,0,0,0,2.18,6.22,6.84,6.84,0,0,0,5.19,2.23,5.49,5.49,0,0,0,3.55-1.16A7.05,7.05,0,0,0,1430.22,821.13Zm.52-9.09a8.67,8.67,0,0,0-2-5.93,6.18,6.18,0,0,0-4.67-2,6.25,6.25,0,0,0-4.87,2.15,8.25,8.25,0,0,0-1.88,5.82Z" transform="translate(-111.46 -234.72)"/><path class="cls-5" d="M1443.83,822.25l9-1.37a6.59,6.59,0,0,0,2.34,4,7.84,7.84,0,0,0,4.92,1.36,8.91,8.91,0,0,0,5.25-1.28,2.87,2.87,0,0,0,1.19-2.4,2.41,2.41,0,0,0-.64-1.7,7.24,7.24,0,0,0-3-1.18q-10.89-2.4-13.8-4.38a8.78,8.78,0,0,1-4-7.65,9.44,9.44,0,0,1,3.48-7.43q3.5-3,10.82-3,7,0,10.37,2.27a11.62,11.62,0,0,1,4.67,6.72l-8.48,1.57a5.27,5.27,0,0,0-2.07-3,7.57,7.57,0,0,0-4.33-1.05,9.78,9.78,0,0,0-5.09,1,2.14,2.14,0,0,0-1,1.83,2,2,0,0,0,.89,1.63q1.22.9,8.4,2.53t10,4a8.28,8.28,0,0,1,2.82,6.68,10.29,10.29,0,0,1-3.9,8c-2.61,2.23-6.46,3.36-11.56,3.36q-6.94,0-11-2.82A13,13,0,0,1,1443.83,822.25Z" transform="translate(-111.46 -234.72)"/><path class="cls-5" d="M1502.88,832V785h9.21l19.2,31.33V785h8.81V832h-9.51l-18.91-30.59V832Z" transform="translate(-111.46 -234.72)"/><path class="cls-5" d="M1548,814.48a18.33,18.33,0,0,1,2.21-8.68,15.14,15.14,0,0,1,6.25-6.4,18.58,18.58,0,0,1,9-2.2,17,17,0,0,1,12.64,5,17.29,17.29,0,0,1,4.93,12.66,17.49,17.49,0,0,1-5,12.78,16.81,16.81,0,0,1-12.52,5.08,19.74,19.74,0,0,1-8.92-2.12,14.45,14.45,0,0,1-6.44-6.19A20.53,20.53,0,0,1,1548,814.48Zm9.21.47q0,5.07,2.4,7.75a7.85,7.85,0,0,0,11.83,0q2.38-2.69,2.38-7.81t-2.38-7.68a7.85,7.85,0,0,0-11.83,0C1558,809,1557.18,811.59,1557.18,815Z" transform="translate(-111.46 -234.72)"/><path class="cls-5" d="M1612.45,832v-5.09a13.24,13.24,0,0,1-4.88,4.29,13.74,13.74,0,0,1-6.38,1.57,12.51,12.51,0,0,1-6.15-1.51,8.83,8.83,0,0,1-3.93-4.22,18.67,18.67,0,0,1-1.22-7.52V798h9v15.62q0,7.17.5,8.78a4.75,4.75,0,0,0,1.81,2.56,5.53,5.53,0,0,0,3.32,1,7,7,0,0,0,4.13-1.27,6.39,6.39,0,0,0,2.5-3.13q.67-1.87.67-9.17V798h9v34Z" transform="translate(-111.46 -234.72)"/><path class="cls-5" d="M1639.46,832l-13.7-34h9.44l6.4,17.35,1.86,5.79q.74-2.21.93-2.91.43-1.44,1-2.88l6.46-17.35h9.25l-13.5,34Z" transform="translate(-111.46 -234.72)"/><path class="cls-5" d="M1686.25,821.13l9,1.5a14.79,14.79,0,0,1-5.46,7.51,16,16,0,0,1-9.33,2.58q-8.87,0-13.12-5.79a19.49,19.49,0,0,1-3.36-11.72q0-8.44,4.42-13.23a14.52,14.52,0,0,1,11.17-4.78q7.58,0,12,5t4.19,15.35h-22.52a9.1,9.1,0,0,0,2.17,6.22,6.84,6.84,0,0,0,5.19,2.23,5.49,5.49,0,0,0,3.55-1.16A7.13,7.13,0,0,0,1686.25,821.13Zm.51-9.09a8.67,8.67,0,0,0-2-5.93,6.18,6.18,0,0,0-4.67-2,6.26,6.26,0,0,0-4.87,2.15,8.3,8.3,0,0,0-1.88,5.82Z" transform="translate(-111.46 -234.72)"/><path class="cls-5" d="M1703,832V785h9V832Z" transform="translate(-111.46 -234.72)"/><path class="cls-5" d="M1721.22,832V785h9V832Z" transform="translate(-111.46 -234.72)"/><path class="cls-5" d="M1759.11,821.13l9,1.5a14.67,14.67,0,0,1-5.46,7.51,16,16,0,0,1-9.33,2.58q-8.85,0-13.12-5.79a19.49,19.49,0,0,1-3.36-11.72q0-8.44,4.42-13.23a14.55,14.55,0,0,1,11.17-4.78q7.58,0,12,5t4.19,15.35H1746a9.11,9.11,0,0,0,2.18,6.22,6.8,6.8,0,0,0,5.18,2.23,5.49,5.49,0,0,0,3.55-1.16A7.06,7.06,0,0,0,1759.11,821.13Zm.51-9.09a8.62,8.62,0,0,0-2-5.93,6.48,6.48,0,0,0-9.54.11,8.3,8.3,0,0,0-1.89,5.82Z" transform="translate(-111.46 -234.72)"/><path class="cls-5" d="M1772.71,822.25l9-1.37a6.69,6.69,0,0,0,2.34,4,7.88,7.88,0,0,0,4.93,1.36,9,9,0,0,0,5.25-1.28,2.88,2.88,0,0,0,1.18-2.4,2.36,2.36,0,0,0-.64-1.7,7.24,7.24,0,0,0-3-1.18q-10.87-2.4-13.79-4.38a8.76,8.76,0,0,1-4-7.65,9.42,9.42,0,0,1,3.49-7.43q3.48-3,10.81-3,7,0,10.37,2.27a11.57,11.57,0,0,1,4.67,6.72l-8.48,1.57a5.26,5.26,0,0,0-2.06-3,7.58,7.58,0,0,0-4.34-1.05,9.8,9.8,0,0,0-5.09,1,2.14,2.14,0,0,0-1,1.83,2,2,0,0,0,.9,1.63q1.21.9,8.4,2.53t10,4a8.27,8.27,0,0,1,2.81,6.68,10.29,10.29,0,0,1-3.9,8c-2.6,2.23-6.45,3.36-11.55,3.36q-6.95,0-11-2.82A13,13,0,0,1,1772.71,822.25Z" transform="translate(-111.46 -234.72)"/></svg>